{"glyphs":{"$":{"x_min":0,"x_max":649,"ha":649,"o":"m 78 225 l 171 269 l 176 269 l 176 151 q 176 117 235 94 q 264 83 296 80 l 296 368 q 251 371 213 386 q 122 422 122 486 l 122 627 q 122 692 213 728 q 251 743 296 746 l 296 830 l 348 854 l 353 854 l 353 746 q 398 743 436 728 q 527 692 527 627 l 527 565 l 435 521 l 430 521 l 430 610 q 430 635 399 647 q 379 655 353 658 l 353 454 q 410 450 460 429 q 571 382 571 293 l 571 151 q 571 63 460 16 q 411 -5 353 -9 l 353 -93 l 301 -117 l 296 -117 l 296 -9 q 239 -5 189 16 q 78 62 78 151 z m 296 456 l 296 658 q 271 655 250 647 q 220 634 220 610 l 220 503 q 220 479 250 467 q 271 458 296 456 z m 353 365 l 353 80 q 386 83 415 94 q 474 117 474 151 l 474 293 q 474 328 415 351 q 386 362 353 365 z"},"<":{"x_min":0,"x_max":653,"ha":653,"o":"m 73 324 l 73 329 l 113 414 l 516 585 l 556 500 l 556 496 l 222 360 l 556 225 l 556 220 l 516 136 z"},"'":{"x_min":0,"x_max":228,"ha":228,"o":"m 149 757 l 154 757 l 154 521 l 78 484 l 73 484 l 73 721 z"},"=":{"x_min":0,"x_max":593,"ha":593,"o":"m 73 413 l 73 418 l 113 502 l 520 502 l 520 497 l 480 413 z m 73 235 l 73 240 l 113 324 l 520 324 l 520 319 l 480 235 z"},"a":{"x_min":0,"x_max":518,"ha":518,"o":"m 444 24 l 352 -20 l 347 -20 l 347 7 q 300 -10 247 -10 q 189 -10 140 9 q 49 45 49 110 l 49 242 q 49 307 140 342 q 189 361 247 361 q 300 361 347 345 l 347 410 q 347 435 316 447 q 286 459 242 459 l 123 459 l 123 464 l 162 547 l 242 547 q 304 547 353 528 q 444 493 444 427 z m 146 127 q 146 103 177 90 q 208 78 247 78 q 286 78 316 90 q 347 103 347 127 l 347 225 q 347 249 316 261 q 286 273 247 273 q 208 273 177 261 q 146 249 146 225 z"},"L":{"x_min":0,"x_max":532,"ha":532,"o":"m 98 0 l 98 713 l 190 757 l 195 757 l 195 89 l 530 89 l 530 84 l 490 0 z"},"3":{"x_min":0,"x_max":649,"ha":649,"o":"m 78 225 l 171 269 l 176 269 l 176 151 q 176 118 235 94 q 276 78 325 78 q 374 78 415 94 q 474 118 474 151 l 474 293 q 474 328 415 351 q 374 367 325 367 q 257 367 216 345 l 377 648 l 122 648 l 122 653 l 161 737 l 529 737 l 365 453 q 416 447 460 429 q 571 382 571 293 l 571 151 q 571 62 460 16 q 398 -10 325 -10 q 251 -10 189 16 q 78 62 78 151 z"},"J":{"x_min":0,"x_max":620,"ha":620,"o":"m 39 225 l 132 269 l 137 269 l 137 151 q 137 118 196 94 q 237 78 283 78 q 325 78 366 94 q 425 118 425 151 l 425 648 l 145 648 l 145 653 l 185 737 l 522 737 l 522 151 q 522 62 412 16 q 350 -10 283 -10 q 212 -10 150 16 q 39 62 39 151 z"},"V":{"x_min":0,"x_max":577,"ha":577,"o":"m 251 -20 l 2 717 l 87 757 l 92 757 l 294 144 l 485 757 l 490 757 l 574 717 l 341 21 l 256 -20 z"},"\"":{"x_min":0,"x_max":365,"ha":365,"o":"m 287 757 l 292 757 l 292 521 l 215 484 l 210 484 l 210 721 z m 149 757 l 154 757 l 154 521 l 78 484 l 73 484 l 73 721 z"},"7":{"x_min":0,"x_max":511,"ha":511,"o":"m 224 -20 l 219 -20 l 131 22 l 354 648 l 24 648 l 24 653 l 64 737 l 487 737 l 487 732 z"},"S":{"x_min":0,"x_max":649,"ha":649,"o":"m 78 225 l 171 269 l 176 269 l 176 151 q 176 118 235 94 q 276 78 325 78 q 374 78 415 94 q 474 118 474 151 l 474 293 q 474 328 415 351 q 374 367 325 367 q 263 367 213 386 q 122 422 122 486 l 122 627 q 122 693 213 728 q 263 747 325 747 q 387 747 436 728 q 527 692 527 627 l 527 565 l 435 521 l 430 521 l 430 610 q 430 635 399 647 q 369 659 325 659 q 281 659 250 647 q 220 635 220 610 l 220 503 q 220 479 250 467 q 281 455 325 455 q 398 455 460 429 q 571 383 571 293 l 571 151 q 571 62 460 16 q 398 -10 325 -10 q 251 -10 189 16 q 78 62 78 151 z"},"}":{"x_min":0,"x_max":403,"ha":403,"o":"m 24 854 q 98 854 160 829 q 271 783 271 693 l 271 413 l 378 413 l 378 408 l 339 324 l 271 324 l 271 44 q 271 -45 160 -91 q 98 -117 24 -117 l 24 -29 q 73 -29 114 -13 q 173 10 173 44 l 173 693 q 173 727 114 750 q 73 767 24 767 z"},"Z":{"x_min":0,"x_max":619,"ha":619,"o":"m 73 0 l 73 5 l 389 648 l 78 648 l 78 653 l 118 737 l 541 737 l 541 732 l 223 89 l 545 89 l 545 84 l 506 0 z"},"x":{"x_min":0,"x_max":496,"ha":496,"o":"m 129 -20 l 124 -20 l 39 21 l 190 269 l 39 516 l 125 557 l 129 557 l 248 348 l 366 557 l 371 557 l 457 516 l 305 269 l 457 21 l 372 -20 l 367 -20 l 248 189 z"},")":{"x_min":0,"x_max":369,"ha":369,"o":"m 24 854 q 98 854 160 829 q 271 783 271 693 l 271 44 q 271 -45 160 -91 q 98 -117 24 -117 l 24 -29 q 73 -29 114 -13 q 173 10 173 44 l 173 693 q 173 727 114 750 q 73 767 24 767 z"},"&":{"x_min":0,"x_max":840,"ha":840,"o":"m 415 -10 q 370 -10 325 -10 q 250 -10 189 16 q 78 63 78 151 l 78 293 q 78 373 182 418 q 122 472 122 528 l 122 586 q 122 677 211 721 q 263 747 325 747 q 387 747 438 721 q 527 676 527 586 l 527 555 l 435 511 l 430 511 l 430 586 q 430 621 393 643 q 366 659 325 659 q 283 659 257 643 q 220 620 220 586 l 220 528 q 220 488 257 469 q 286 454 319 451 q 366 446 405 446 l 549 273 l 672 438 l 677 438 l 761 397 l 605 204 l 762 21 l 677 -20 l 672 -20 l 540 139 z m 354 365 q 337 366 325 367 q 276 367 235 351 q 176 327 176 293 l 176 151 q 176 117 235 94 q 276 78 325 78 q 391 78 491 203 z"},"_":{"x_min":0,"x_max":593,"ha":593,"o":"m 73 -200 l 73 -195 l 113 -111 l 520 -111 l 520 -116 l 480 -200 z"},"v":{"x_min":0,"x_max":501,"ha":501,"o":"m 213 -20 l 24 517 l 109 557 l 114 557 l 252 149 l 387 557 l 392 557 l 477 517 l 302 21 l 218 -20 z"},"O":{"x_min":0,"x_max":688,"ha":688,"o":"m 195 151 q 195 118 254 94 q 295 78 344 78 q 393 78 434 94 q 493 118 493 151 l 493 586 q 493 619 434 643 q 393 659 344 659 q 295 659 254 643 q 195 620 195 586 z m 98 151 q 98 151 98 586 q 98 675 208 721 q 271 747 344 747 q 418 747 480 721 q 591 675 591 586 l 591 151 q 591 62 480 16 q 418 -10 344 -10 q 271 -10 208 16 q 98 62 98 151 z"},"(":{"x_min":0,"x_max":369,"ha":369,"o":"m 344 854 l 344 767 q 295 767 254 750 q 195 727 195 693 l 195 44 q 195 10 254 -13 q 295 -29 344 -29 l 344 -117 q 271 -117 208 -91 q 98 -45 98 44 l 98 693 q 98 783 208 829 q 271 854 344 854 z"},"C":{"x_min":0,"x_max":688,"ha":688,"o":"m 591 269 l 591 151 q 591 62 480 16 q 418 -10 344 -10 q 271 -10 208 16 q 98 62 98 151 l 98 586 q 98 675 208 721 q 271 747 344 747 q 418 747 480 721 q 591 675 591 586 l 591 513 l 498 469 l 493 469 l 493 586 q 493 619 434 643 q 393 659 344 659 q 295 659 254 643 q 195 620 195 586 l 195 151 q 195 118 254 94 q 295 78 344 78 q 393 78 434 94 q 493 118 493 151 l 493 225 l 586 269 z"},"W":{"x_min":0,"x_max":1084,"ha":1084,"o":"m 98 713 l 190 757 l 195 757 l 195 151 q 195 118 254 94 q 295 78 344 78 q 393 78 434 94 q 493 118 493 151 l 493 713 l 586 757 l 591 757 l 591 151 q 591 118 650 94 q 691 78 740 78 q 789 78 830 94 q 889 118 889 151 l 889 713 l 981 757 l 986 757 l 986 151 q 986 62 875 16 q 813 -10 740 -10 q 666 -10 604 16 q 567 32 542 52 q 517 32 480 16 q 418 -10 344 -10 q 271 -10 208 16 q 98 62 98 151 z"},"A":{"x_min":0,"x_max":688,"ha":688,"o":"m 98 -20 l 98 586 q 98 675 208 721 q 271 747 344 747 q 418 747 480 721 q 591 675 591 586 q 591 586 591 24 l 498 -20 l 493 -20 l 493 324 l 195 324 l 195 24 l 103 -20 z m 195 413 l 493 413 l 493 586 q 493 620 434 643 q 393 659 344 659 q 295 659 254 643 q 195 620 195 586 z"},"f":{"x_min":0,"x_max":415,"ha":415,"o":"m 98 -20 l 98 399 l 24 399 l 24 404 l 64 488 l 98 488 l 98 627 q 98 693 189 728 q 238 747 300 747 l 366 747 l 366 742 l 327 659 l 300 659 q 256 659 226 647 q 195 635 195 610 l 195 488 l 357 488 l 357 483 l 317 399 l 195 399 l 195 24 l 103 -20 z"},"Q":{"x_min":0,"x_max":688,"ha":688,"o":"m 98 151 l 98 586 q 98 675 208 721 q 271 747 344 747 q 418 747 480 721 q 591 675 591 586 l 591 151 q 591 94 544 54 l 568 21 l 482 -20 l 477 -20 l 458 8 q 405 -10 344 -10 q 271 -10 208 16 q 98 62 98 151 z m 195 151 q 195 118 254 94 q 295 78 344 78 q 376 78 404 85 l 308 222 l 394 263 l 399 263 l 489 134 q 493 142 493 151 l 493 586 q 493 619 434 643 q 393 659 344 659 q 295 659 254 643 q 195 620 195 586 z"},"w":{"x_min":0,"x_max":859,"ha":859,"o":"m 73 513 l 166 557 l 171 557 l 171 127 q 171 103 201 90 q 232 78 276 78 q 320 78 350 90 q 381 103 381 127 l 381 513 l 474 557 l 479 557 l 479 127 q 479 103 509 90 q 540 78 583 78 q 627 78 658 90 q 688 103 688 127 l 688 513 l 781 557 l 786 557 l 786 110 q 786 44 695 9 q 646 -10 583 -10 q 522 -10 472 9 q 448 19 430 30 q 412 19 387 9 q 337 -10 276 -10 q 214 -10 165 9 q 73 44 73 110 z"},"-":{"x_min":0,"x_max":593,"ha":593,"o":"m 73 324 l 73 329 l 113 413 l 520 413 l 520 408 l 480 324 z"},"E":{"x_min":0,"x_max":565,"ha":565,"o":"m 98 0 l 98 713 l 149 737 l 459 737 l 459 732 l 419 648 l 195 648 l 195 413 l 459 413 l 459 408 l 419 324 l 195 324 l 195 89 l 541 89 l 541 84 l 501 0 z"},"s":{"x_min":0,"x_max":522,"ha":522,"o":"m 59 172 l 151 216 l 156 216 l 156 127 q 156 103 187 90 q 217 78 261 78 q 307 78 336 90 q 366 103 366 127 l 366 203 q 366 227 335 240 q 305 252 261 252 q 212 252 165 271 q 79 306 79 372 l 79 427 q 79 490 160 525 q 210 547 261 547 q 310 547 345 532 q 429 496 429 427 l 336 383 l 332 383 l 332 410 q 332 438 312 449 q 292 459 261 459 q 219 459 198 447 q 177 435 177 410 l 177 389 q 177 364 197 352 q 217 340 261 340 q 323 340 372 321 q 464 286 464 220 l 464 110 q 464 45 373 9 q 323 -10 261 -10 q 199 -10 150 9 q 59 45 59 110 z"},">":{"x_min":0,"x_max":653,"ha":653,"o":"m 580 396 l 580 392 l 540 307 l 138 136 l 98 220 l 98 225 l 432 360 l 98 496 l 98 500 l 138 585 z"},"l":{"x_min":0,"x_max":293,"ha":293,"o":"m 98 -20 l 98 713 l 190 757 l 195 757 l 195 24 l 103 -20 z"},"8":{"x_min":0,"x_max":649,"ha":649,"o":"m 220 528 q 220 494 257 471 q 283 455 325 455 q 366 455 393 471 q 430 493 430 528 l 430 586 q 430 621 393 643 q 366 659 325 659 q 283 659 257 643 q 220 620 220 586 z m 176 151 q 176 117 235 94 q 276 78 325 78 q 374 78 415 94 q 474 117 474 151 l 474 293 q 474 327 415 351 q 374 367 325 367 q 276 367 235 351 q 176 327 176 293 z m 78 151 l 78 293 q 78 373 182 418 q 122 472 122 528 l 122 586 q 122 676 211 721 q 263 747 325 747 q 387 747 438 721 q 527 677 527 586 l 527 528 q 527 472 467 418 q 571 373 571 293 l 571 151 q 571 62 460 16 q 398 -10 325 -10 q 251 -10 189 16 q 78 62 78 151 z"},"\\":{"x_min":0,"x_max":476,"ha":476,"o":"m 396 -68 l 5 772 l 74 806 l 79 806 l 471 -35 l 401 -68 z"},"e":{"x_min":0,"x_max":552,"ha":552,"o":"m 479 216 l 479 110 q 479 45 387 9 q 338 -10 276 -10 q 214 -10 165 9 q 73 45 73 110 l 73 427 q 73 492 165 528 q 214 547 276 547 q 338 547 387 528 q 479 492 479 427 l 479 365 l 171 127 q 171 103 201 90 q 232 78 276 78 q 320 78 350 90 q 381 103 381 127 l 381 172 l 474 216 z m 171 230 l 381 399 l 381 410 q 381 435 350 447 q 320 459 276 459 q 232 459 201 447 q 171 435 171 410 z"},"b":{"x_min":0,"x_max":576,"ha":576,"o":"m 98 110 l 98 713 l 190 757 l 195 757 l 195 530 q 242 547 300 547 q 362 547 412 528 q 503 492 503 427 l 503 110 q 503 44 412 9 q 362 -10 300 -10 q 238 -10 189 9 q 98 45 98 110 z m 195 410 l 195 127 q 195 103 226 90 q 256 78 300 78 q 344 78 375 90 q 405 103 405 127 l 405 410 q 405 435 375 447 q 344 459 300 459 q 256 459 226 447 q 195 435 195 410 z"},"%":{"x_min":0,"x_max":1047,"ha":1047,"o":"m 666 127 q 666 103 697 90 q 727 78 771 78 q 815 78 845 90 q 876 103 876 127 l 876 244 q 876 269 845 281 q 815 293 771 293 q 727 293 697 281 q 666 269 666 244 z m 568 110 l 568 261 q 568 327 660 362 q 709 381 771 381 q 834 381 882 362 q 974 325 974 261 l 974 110 q 974 44 882 9 q 833 -10 771 -10 q 708 -10 660 9 q 568 45 568 110 z m 171 493 q 171 469 201 457 q 232 444 276 444 q 320 444 350 457 q 381 469 381 493 l 381 610 q 381 635 350 647 q 320 659 276 659 q 232 659 201 647 q 171 635 171 610 z m 73 476 l 73 627 q 73 693 165 728 q 214 747 276 747 q 339 747 387 728 q 479 691 479 627 l 479 476 q 479 411 387 375 q 338 356 276 356 q 212 356 165 375 q 73 412 73 476 z m 385 -20 l 316 14 l 662 757 l 667 757 l 736 724 l 390 -20 z"},"m":{"x_min":0,"x_max":859,"ha":859,"o":"m 73 -20 l 73 427 q 73 493 165 528 q 214 547 276 547 q 337 547 387 528 q 412 519 430 507 q 448 519 472 528 q 522 547 583 547 q 646 547 695 528 q 786 493 786 427 l 786 24 l 693 -20 l 688 -20 l 688 410 q 688 435 658 447 q 627 459 583 459 q 540 459 509 447 q 479 435 479 410 l 479 24 l 386 -20 l 381 -20 l 381 410 q 381 435 350 447 q 320 459 276 459 q 232 459 201 447 q 171 435 171 410 l 171 24 l 78 -20 z"},"#":{"x_min":0,"x_max":668,"ha":668,"o":"m 224 108 l 219 108 l 219 254 l 73 254 l 73 259 l 113 343 l 219 343 l 219 396 l 73 396 l 73 400 l 113 484 l 219 484 l 219 590 l 303 630 l 308 630 l 308 484 l 360 484 l 360 590 l 444 630 l 449 630 l 449 484 l 595 484 l 595 479 l 555 396 l 449 396 l 449 343 l 595 343 l 595 338 l 555 254 l 449 254 l 449 148 l 365 108 l 360 108 l 360 254 l 308 254 l 308 148 z m 308 343 l 360 343 l 360 396 l 308 396 z"},",":{"x_min":0,"x_max":297,"ha":297,"o":"m 166 136 l 171 136 q 224 83 224 17 q 224 -77 104 -140 l 83 -115 q 139 -59 139 -10 q 139 49 73 92 z"},"n":{"x_min":0,"x_max":552,"ha":552,"o":"m 73 -20 l 73 427 q 73 493 165 528 q 214 547 276 547 q 338 547 387 528 q 479 493 479 427 l 479 24 l 386 -20 l 381 -20 l 381 410 q 381 435 350 447 q 320 459 276 459 q 232 459 201 447 q 171 435 171 410 l 171 24 l 78 -20 z"},"h":{"x_min":0,"x_max":576,"ha":576,"o":"m 98 -20 l 98 713 l 190 757 l 195 757 l 195 530 q 242 547 300 547 q 362 547 412 528 q 503 493 503 427 l 503 24 l 410 -20 l 405 -20 l 405 410 q 405 435 375 447 q 344 459 300 459 q 256 459 226 447 q 195 435 195 410 l 195 24 l 103 -20 z"},"z":{"x_min":0,"x_max":514,"ha":514,"o":"m 49 0 l 49 5 l 304 448 l 54 448 l 54 453 l 93 537 l 460 537 l 460 532 l 206 89 l 465 89 l 465 84 l 426 0 z"},"B":{"x_min":0,"x_max":669,"ha":669,"o":"m 195 452 l 334 452 q 376 452 402 468 q 439 492 439 525 l 439 576 q 439 617 400 633 q 361 649 334 649 l 195 649 z m 195 88 l 334 88 q 383 88 424 104 q 483 127 483 161 l 483 291 q 483 325 424 348 q 383 364 334 364 l 195 364 z m 98 0 l 98 713 l 149 737 l 334 737 q 396 737 448 711 q 537 666 537 576 l 537 525 q 537 470 477 416 q 581 371 581 291 l 581 161 q 581 72 470 26 q 408 0 334 0 z"},"K":{"x_min":0,"x_max":664,"ha":664,"o":"m 98 -20 l 98 713 l 190 757 l 195 757 l 195 389 l 460 757 l 465 757 l 551 716 l 333 426 q 401 426 465 399 q 576 353 576 264 l 576 24 l 483 -20 l 479 -20 l 479 264 q 479 298 419 321 q 373 338 333 338 q 293 338 255 323 q 195 300 195 264 l 195 24 l 103 -20 z"},"R":{"x_min":0,"x_max":666,"ha":666,"o":"m 195 337 l 334 337 q 383 337 424 353 q 483 376 483 410 l 483 576 q 483 610 424 633 q 383 649 334 649 l 195 649 z m 98 -20 l 98 713 l 149 737 l 334 737 q 408 737 470 711 q 581 666 581 576 l 581 410 q 581 320 470 275 q 449 266 426 260 l 593 21 l 507 -20 l 502 -20 l 314 249 l 195 249 l 195 24 l 103 -20 z"},"T":{"x_min":0,"x_max":521,"ha":521,"o":"m 211 -20 l 211 648 l 2 648 l 2 653 l 42 737 l 518 737 l 518 732 l 479 648 l 309 648 l 309 24 l 216 -20 z"},"P":{"x_min":0,"x_max":654,"ha":654,"o":"m 98 -20 l 98 713 l 149 737 l 334 737 q 408 737 470 711 q 581 666 581 576 l 581 410 q 581 321 470 275 q 408 249 334 249 l 195 249 l 195 24 l 103 -20 z m 195 337 l 334 337 q 383 337 424 353 q 483 376 483 410 l 483 576 q 483 610 424 633 q 383 649 334 649 l 195 649 z"},"|":{"x_min":0,"x_max":325,"ha":325,"o":"m 122 -117 l 122 818 l 198 854 l 203 854 l 203 -81 l 127 -117 z"},"t":{"x_min":0,"x_max":373,"ha":373,"o":"m 138 -20 l 138 448 l 12 448 l 12 453 l 52 537 l 138 537 l 138 713 l 230 757 l 235 757 l 235 537 l 361 537 l 361 532 l 321 448 l 235 448 l 235 24 l 143 -20 z"},"M":{"x_min":0,"x_max":1084,"ha":1084,"o":"m 98 -20 l 98 586 q 98 675 208 721 q 271 747 344 747 q 418 747 480 721 q 517 706 542 686 q 567 706 604 721 q 666 747 740 747 q 813 747 875 721 q 986 675 986 586 l 986 24 l 894 -20 l 889 -20 l 889 586 q 889 620 830 643 q 789 659 740 659 q 691 659 650 643 q 591 620 591 586 l 591 24 l 498 -20 l 493 -20 l 493 586 q 493 620 434 643 q 393 659 344 659 q 295 659 254 643 q 195 620 195 586 l 195 24 l 103 -20 z"},"g":{"x_min":0,"x_max":566,"ha":566,"o":"m 73 110 l 73 427 q 73 493 165 528 q 214 547 276 547 q 338 547 387 528 q 479 492 479 427 l 479 -90 q 479 -156 387 -191 q 338 -210 276 -210 l 124 -210 l 124 -205 l 163 -122 l 276 -122 q 320 -122 350 -110 q 381 -98 381 -73 l 381 7 q 334 -10 276 -10 q 214 -10 165 9 q 73 45 73 110 z m 171 127 q 171 103 201 90 q 232 78 276 78 q 320 78 351 90 q 381 103 381 127 l 381 410 q 381 435 350 447 q 320 459 276 459 q 232 459 201 447 q 171 435 171 410 z"},"y":{"x_min":0,"x_max":576,"ha":576,"o":"m 73 513 l 166 557 l 171 557 l 171 127 q 171 103 201 90 q 232 78 276 78 q 320 78 350 90 q 381 103 381 127 l 381 513 l 474 557 l 479 557 l 479 -90 q 479 -156 387 -191 q 338 -210 276 -210 l 124 -210 l 124 -205 l 163 -122 l 276 -122 q 320 -122 350 -110 q 381 -98 381 -73 l 381 7 q 334 -10 276 -10 q 214 -10 165 9 q 73 44 73 110 z"},"@":{"x_min":0,"x_max":669,"ha":669,"o":"m 488 -20 l 441 -20 q 378 -20 330 0 q 239 36 239 100 l 239 207 q 239 272 330 308 q 379 327 441 327 q 463 327 483 324 l 483 386 q 483 419 424 443 q 383 459 334 459 q 286 459 245 443 q 186 419 186 386 l 186 -49 q 186 -83 245 -106 q 286 -122 334 -122 l 334 -210 q 261 -210 199 -184 q 88 -138 88 -49 l 88 386 q 88 475 199 521 q 261 547 334 547 q 408 547 470 521 q 581 475 581 386 l 581 24 z m 483 72 l 483 235 q 464 239 441 239 q 397 239 367 227 q 336 214 336 190 l 336 117 q 336 93 367 81 q 397 68 441 68 q 464 68 483 72 z"},"p":{"x_min":0,"x_max":576,"ha":576,"o":"m 503 427 q 503 427 503 110 q 503 44 412 9 q 362 -10 300 -10 q 242 -10 195 7 l 195 -176 l 103 -220 l 98 -220 l 98 427 q 98 493 189 528 q 238 547 300 547 q 362 547 412 528 q 503 492 503 427 z m 405 410 q 405 435 375 447 q 344 459 300 459 q 256 459 226 447 q 195 435 195 410 l 195 127 q 195 103 226 90 q 256 78 300 78 q 344 78 375 90 q 405 103 405 127 z"},"X":{"x_min":0,"x_max":624,"ha":624,"o":"m 134 -20 l 49 21 l 255 369 l 49 716 l 134 757 l 139 757 l 312 455 l 485 757 l 490 757 l 575 716 l 369 369 l 575 21 l 490 -20 l 485 -20 l 312 282 l 139 -20 z"},"*":{"x_min":0,"x_max":578,"ha":578,"o":"m 333 757 l 333 601 l 425 664 l 502 611 l 504 607 l 368 534 l 504 460 l 502 457 l 425 403 l 333 466 l 333 350 l 249 311 l 244 311 l 244 466 l 152 403 l 76 457 l 73 460 l 209 534 l 73 607 l 76 611 l 152 664 l 244 601 l 244 717 l 328 757 z"},"Y":{"x_min":0,"x_max":640,"ha":640,"o":"m 271 -20 l 271 235 q 226 241 184 258 q 73 304 73 394 l 73 713 l 166 757 l 171 757 l 171 394 q 171 360 230 336 q 271 320 320 320 q 369 320 410 336 q 469 360 469 394 l 469 713 l 562 757 l 566 757 l 566 394 q 566 305 456 258 q 415 241 369 235 l 369 24 l 276 -20 z"},"c":{"x_min":0,"x_max":552,"ha":552,"o":"m 479 216 l 479 110 q 479 45 387 9 q 338 -10 276 -10 q 214 -10 165 9 q 73 45 73 110 l 73 427 q 73 492 165 528 q 214 547 276 547 q 338 547 387 528 q 479 492 479 427 l 479 365 l 386 321 l 381 321 l 381 410 q 381 435 350 447 q 320 459 276 459 q 232 459 201 447 q 171 435 171 410 l 171 127 q 171 103 201 90 q 232 78 276 78 q 320 78 350 90 q 381 103 381 127 l 381 172 l 474 216 z"},"/":{"x_min":0,"x_max":476,"ha":476,"o":"m 74 -68 l 5 -35 l 396 806 l 401 806 l 471 772 l 79 -68 z"},"[":{"x_min":0,"x_max":422,"ha":422,"o":"m 98 -117 l 98 811 l 190 854 l 397 854 l 397 850 l 368 786 l 195 786 l 195 -49 l 397 -49 l 397 -54 l 368 -117 z"},"6":{"x_min":0,"x_max":688,"ha":688,"o":"m 581 552 l 488 508 l 483 508 l 483 586 q 483 620 424 643 q 383 659 337 659 q 295 659 254 643 q 195 620 195 586 l 195 438 q 202 441 208 444 q 269 470 344 470 q 418 470 480 444 q 591 397 591 309 l 591 151 q 591 62 480 16 q 418 -10 344 -10 q 271 -10 208 16 q 98 62 98 151 l 98 586 q 98 676 208 721 q 271 747 337 747 q 408 747 470 721 q 581 675 581 586 z m 195 151 q 195 118 254 94 q 295 78 344 78 q 393 78 434 94 q 493 118 493 151 l 493 309 q 493 342 434 366 q 393 382 344 382 q 295 382 254 366 q 195 342 195 309 z"},"r":{"x_min":0,"x_max":352,"ha":352,"o":"m 73 -20 l 73 427 q 73 493 165 528 q 214 547 276 547 l 342 547 l 342 542 l 303 459 l 276 459 q 232 459 201 447 q 171 435 171 410 l 171 24 l 78 -20 z"},"2":{"x_min":0,"x_max":651,"ha":651,"o":"m 73 0 l 73 5 l 113 89 l 347 315 q 474 439 474 487 l 474 586 q 474 620 415 643 q 374 659 325 659 q 276 659 235 643 q 176 620 176 586 l 176 513 l 83 469 l 78 469 l 78 586 q 78 675 189 721 q 251 747 325 747 q 398 747 460 721 q 571 675 571 586 l 571 482 q 571 393 439 275 l 230 89 l 573 89 l 573 84 l 533 0 z"},"{":{"x_min":0,"x_max":403,"ha":403,"o":"m 378 854 l 378 767 q 330 767 289 750 q 229 727 229 693 l 229 44 q 229 10 289 -13 q 330 -29 378 -29 l 378 -117 q 305 -117 243 -91 q 132 -45 132 44 l 132 324 l 24 324 l 24 329 l 64 413 l 132 413 l 132 693 q 132 783 243 829 q 305 854 378 854 z"},"9":{"x_min":0,"x_max":688,"ha":688,"o":"m 98 186 l 190 229 l 195 229 l 195 151 q 195 118 254 94 q 295 78 344 78 q 393 78 434 94 q 493 118 493 151 l 493 299 q 487 296 480 293 q 419 268 344 268 q 271 268 208 293 q 98 340 98 429 l 98 586 q 98 675 208 721 q 271 747 344 747 q 418 747 480 721 q 591 675 591 586 l 591 151 q 591 62 480 16 q 418 -10 344 -10 q 271 -10 208 16 q 98 62 98 151 z m 493 586 q 493 620 434 643 q 393 659 344 659 q 295 659 254 643 q 195 620 195 586 l 195 429 q 195 395 254 372 q 295 355 344 355 q 393 355 434 372 q 493 395 493 429 z"}," ":{"x_min":0,"x_max":391,"ha":391,"o":""},"I":{"x_min":0,"x_max":293,"ha":293,"o":"m 98 -20 l 98 713 l 190 757 l 195 757 l 195 24 l 103 -20 z"},"H":{"x_min":0,"x_max":679,"ha":679,"o":"m 98 -20 l 98 713 l 190 757 l 195 757 l 195 413 l 483 413 l 483 713 l 576 757 l 581 757 l 581 24 l 488 -20 l 483 -20 l 483 324 l 195 324 l 195 24 l 103 -20 z"},"4":{"x_min":0,"x_max":580,"ha":580,"o":"m 360 264 l 360 579 l 148 264 z m 360 -20 l 360 175 l 2 175 l 2 180 l 42 264 l 360 713 l 453 757 l 458 757 l 458 264 l 531 264 l 531 259 l 492 175 l 458 175 l 458 24 l 365 -20 z"},"~":{"x_min":0,"x_max":556,"ha":556,"o":"m 73 285 q 73 461 189 461 q 254 461 298 412 q 333 371 360 371 q 396 371 396 421 l 478 461 l 482 461 q 482 285 367 285 q 301 285 258 334 q 222 375 195 375 q 160 375 160 324 l 78 285 z"},"D":{"x_min":0,"x_max":679,"ha":679,"o":"m 195 88 l 334 88 q 383 88 424 104 q 483 127 483 161 l 483 576 q 483 610 424 633 q 384 649 334 649 l 195 649 z m 98 0 l 98 713 l 149 737 l 334 737 q 408 737 470 711 q 581 666 581 576 l 581 161 q 581 72 470 26 q 408 0 334 0 z"},"^":{"x_min":0,"x_max":645,"ha":645,"o":"m 73 531 l 258 717 l 342 757 l 347 757 l 572 531 l 487 491 l 482 491 l 322 648 l 163 491 l 158 491 z"},"0":{"x_min":0,"x_max":688,"ha":688,"o":"m 195 151 q 195 118 254 94 q 295 78 344 78 q 393 78 434 94 q 493 118 493 151 l 493 586 q 493 619 434 643 q 393 659 344 659 q 295 659 254 643 q 195 620 195 586 z m 98 151 q 98 151 98 586 q 98 675 208 721 q 271 747 344 747 q 418 747 480 721 q 591 675 591 586 l 591 151 q 591 62 480 16 q 418 -10 344 -10 q 271 -10 208 16 q 98 62 98 151 z"},"F":{"x_min":0,"x_max":547,"ha":547,"o":"m 98 -20 l 98 713 l 149 737 l 459 737 l 459 732 l 419 648 l 195 648 l 195 413 l 459 413 l 459 408 l 419 324 l 195 324 l 195 24 l 103 -20 z"},"`":{"x_min":0,"x_max":316,"ha":316,"o":"m 159 757 l 164 757 l 243 588 l 186 562 l 181 562 l 73 716 z"},"k":{"x_min":0,"x_max":576,"ha":576,"o":"m 98 -20 l 98 713 l 190 757 l 195 757 l 195 350 l 399 557 l 404 557 l 490 516 l 327 366 q 373 362 412 348 q 503 313 503 247 l 503 24 l 410 -20 l 405 -20 l 405 230 q 405 254 375 267 q 344 279 300 279 q 256 279 226 267 q 195 254 195 230 l 195 24 l 103 -20 z"},"u":{"x_min":0,"x_max":552,"ha":552,"o":"m 73 513 l 166 557 l 171 557 l 171 127 q 171 103 201 90 q 232 78 276 78 q 320 78 350 90 q 381 103 381 127 l 381 513 l 474 557 l 479 557 l 479 110 q 479 44 387 9 q 338 -10 276 -10 q 214 -10 165 9 q 73 44 73 110 z"},"]":{"x_min":0,"x_max":422,"ha":422,"o":"m 24 -117 l 24 -112 l 54 -49 l 227 -49 l 227 786 l 24 786 l 24 791 l 54 854 l 324 854 l 324 -73 l 231 -117 z"},"U":{"x_min":0,"x_max":688,"ha":688,"o":"m 98 713 l 190 757 l 195 757 l 195 151 q 195 118 254 94 q 295 78 344 78 q 393 78 434 94 q 493 118 493 151 l 493 713 l 586 757 l 591 757 l 591 151 q 591 62 480 16 q 418 -10 344 -10 q 271 -10 208 16 q 98 62 98 151 z"},"o":{"x_min":0,"x_max":552,"ha":552,"o":"m 171 127 q 171 103 201 90 q 232 78 276 78 q 320 78 350 90 q 381 103 381 127 l 381 410 q 381 435 350 447 q 320 459 276 459 q 232 459 201 447 q 171 435 171 410 z m 73 110 l 73 427 q 73 492 165 528 q 214 547 276 547 q 338 547 387 528 q 479 492 479 427 l 479 110 q 479 45 387 9 q 338 -10 276 -10 q 214 -10 165 9 q 73 45 73 110 z"},"N":{"x_min":0,"x_max":688,"ha":688,"o":"m 98 -20 l 98 586 q 98 675 208 721 q 271 747 344 747 q 418 747 480 721 q 591 675 591 586 l 591 24 l 498 -20 l 493 -20 l 493 586 q 493 620 434 643 q 393 659 344 659 q 295 659 254 643 q 195 620 195 586 l 195 24 l 103 -20 z"},"+":{"x_min":0,"x_max":593,"ha":593,"o":"m 341 592 l 341 413 l 520 413 l 520 408 l 480 324 l 341 324 l 341 185 l 257 146 l 252 146 l 252 324 l 73 324 l 73 329 l 113 413 l 252 413 l 252 552 l 336 592 z"},"G":{"x_min":0,"x_max":688,"ha":688,"o":"m 591 413 l 591 151 q 591 62 480 16 q 418 -10 344 -10 q 271 -10 208 16 q 98 62 98 151 l 98 586 q 98 675 208 721 q 271 747 344 747 q 418 747 480 721 q 591 675 591 586 l 591 513 l 498 469 l 493 469 l 493 586 q 493 620 434 643 q 393 659 344 659 q 295 659 254 643 q 195 620 195 586 l 195 151 q 195 118 254 94 q 295 78 344 78 q 393 78 434 94 q 493 118 493 151 l 493 324 l 323 324 l 323 329 l 363 413 z"},"q":{"x_min":0,"x_max":576,"ha":576,"o":"m 73 110 l 73 427 q 73 493 165 528 q 214 547 276 547 q 338 547 387 528 q 479 492 479 427 l 479 -176 l 386 -220 l 381 -220 l 381 7 q 334 -10 276 -10 q 214 -10 165 9 q 73 45 73 110 z m 171 127 q 171 103 201 90 q 232 78 276 78 q 320 78 350 90 q 381 103 381 127 l 381 410 q 381 435 350 447 q 320 459 276 459 q 232 459 201 447 q 171 435 171 410 z"},"d":{"x_min":0,"x_max":576,"ha":576,"o":"m 73 110 q 73 110 73 427 q 73 493 165 528 q 214 547 276 547 q 334 547 381 530 l 381 713 l 474 757 l 479 757 l 479 110 q 479 44 387 9 q 338 -10 276 -10 q 214 -10 165 9 q 73 45 73 110 z m 171 127 q 171 103 201 90 q 232 78 276 78 q 320 78 350 90 q 381 103 381 127 l 381 410 q 381 435 350 447 q 320 459 276 459 q 232 459 201 447 q 171 435 171 410 z"},"1":{"x_min":0,"x_max":349,"ha":349,"o":"m 129 -20 l 129 621 l 10 556 l 10 656 l 222 757 l 227 757 l 227 24 l 134 -20 z"},"5":{"x_min":0,"x_max":649,"ha":649,"o":"m 78 225 l 171 269 l 176 269 l 176 151 q 176 118 235 94 q 276 78 325 78 q 374 78 415 94 q 474 118 474 151 l 474 293 q 474 328 415 351 q 374 367 325 367 q 257 367 216 345 l 114 395 l 195 737 l 534 737 l 534 732 l 494 648 l 270 648 l 210 431 q 255 455 325 455 q 398 455 460 429 q 571 383 571 293 l 571 151 q 571 62 460 16 q 398 -10 325 -10 q 251 -10 189 16 q 78 62 78 151 z"}}}
